<?xml version="1.0" encoding="UTF-8" standalone="no"?> <!-- Created with Vectornator for iOS (http://vectornator.io/) --><!DOCTYPE svg PUBLIC "-//W3C//DTD SVG 1.1//EN" "http://www.w3.org/Graphics/SVG/1.1/DTD/svg11.dtd"><svg style="fill-rule:evenodd;clip-rule:evenodd;stroke-linecap:round;stroke-linejoin:round;" xmlns:vectornator="http://vectornator.io" xmlns:xlink="http://www.w3.org/1999/xlink" xmlns="http://www.w3.org/2000/svg" xml:space="preserve" version="1.1" viewBox="0 0 1024 1024"><metadata><vectornator:setting key="DimensionsVisible" value="1"/><vectornator:setting key="New" value="1"/><vectornator:setting key="SnapToPoints" value="0"/><vectornator:setting key="GuidesVisible" value="1"/><vectornator:setting key="RulersVisible" value="1"/><vectornator:setting key="CMYKEnabledKey" value="0"/><vectornator:setting key="SnapToEdges" value="0"/><vectornator:setting key="DisplayWhiteBackground" value="0"/><vectornator:setting key="SnapToGuides" value="1"/><vectornator:setting key="GridSpacing" value="128"/><vectornator:setting key="SnapToGrid" value="0"/><vectornator:setting key="Units" value="Pixels"/><vectornator:setting key="DynamicGuides" value="0"/></metadata><defs><linearGradient y1="182.82" id="LinearGradient" x1="276.597" y2="897.671" x2="815.173" gradientUnits="userSpaceOnUse" gradientTransform="matrix(1.50588 0 0 1.50588 -259.012 -259.012)"><stop stop-color="#00aac8" offset="0"/><stop stop-color="#c415e6" offset="1"/></linearGradient></defs><g id="l1" vectornator:layerName="l1"><path d="M800+384L768+384L768+256C768+114.816+653.184-6.00655e-06+512-6.00655e-06C370.816-6.00655e-06+256+114.816+256+256L256+384L224+384C171.093+384+128+427.051+128+480L128+928C128+980.949+171.093+1024+224+1024L800+1024C852.907+1024+896+980.949+896+928L896+480C896+427.051+852.907+384+800+384ZM341.333+256C341.333+161.877+417.877+85.3333+512+85.3333C606.123+85.3333+682.667+161.877+682.667+256L682.667+384L341.333+384L341.333+256ZM554.667+713.472L554.667+810.667C554.667+834.219+535.595+853.333+512+853.333C488.405+853.333+469.333+834.219+469.333+810.667L469.333+713.472C443.947+698.667+426.667+671.445+426.667+640C426.667+592.939+464.939+554.667+512+554.667C559.061+554.667+597.333+592.939+597.333+640C597.333+671.445+580.053+698.667+554.667+713.472Z" opacity="1" fill="url(#LinearGradient)"/></g></svg>