<?xml version="1.0"?>
<svg xmlns="http://www.w3.org/2000/svg" xmlns:xlink="http://www.w3.org/1999/xlink" xmlns:svgjs="http://svgjs.com/svgjs" version="1.1" width="512" height="512" x="0" y="0" viewBox="0 0 512 512" style="enable-background:new 0 0 512 512" xml:space="preserve"><g><g xmlns="http://www.w3.org/2000/svg"><path d="m0 421h512v-210h-512zm30-30v-30h452v30zm30.25-150v60h30v-60h30.25v30h30v-30h30.25v60h30v-60h30.25v30h30v-30h30.25v60h30v-60h30.25v30h30v-30h30.25v60h30v-60h30.25v90h-452v-90z" fill="#808080" data-original="#000000" style=""/><path d="m482 91v30h-452v-30h-30v90h30v-30h452v30h30v-90z" fill="#808080" data-original="#000000" style=""/></g></g></svg>
