<?xml version="1.0" encoding="UTF-8" standalone="no"?> <!-- Created with Vectornator for iOS (http://vectornator.io/) --><!DOCTYPE svg PUBLIC "-//W3C//DTD SVG 1.1//EN" "http://www.w3.org/Graphics/SVG/1.1/DTD/svg11.dtd">
<svg height="100%" style="fill-rule:evenodd;clip-rule:evenodd;stroke-linecap:round;stroke-linejoin:round;" xmlns:xlink="http://www.w3.org/1999/xlink" xmlns="http://www.w3.org/2000/svg" xml:space="preserve" width="100%" xmlns:vectornator="http://vectornator.io" version="1.1" viewBox="0 0 394.667 394.667">
<metadata>
<vectornator:setting key="Units" value="Points"/>
<vectornator:setting key="GuidesVisible" value="1"/>
<vectornator:setting key="RulersVisible" value="1"/>
<vectornator:setting key="SnapToGuides" value="1"/>
<vectornator:setting key="DynamicGuides" value="1"/>
</metadata>
<defs/>
<g id="Untitled" vectornator:layerName="Untitled">
<path d="M73.25+382L320.75+382C354.562+381.961+381.961+354.562+382+320.75L382+73.25C381.961+39.4375+354.562+12.0391+320.75+12L73.25+12C39.4375+12.0391+12.0391+39.4375+12+73.25L12+320.75C12.0391+354.562+39.4375+381.961+73.25+382ZM34.5+73.25C34.5234+51.8594+51.8594+34.5234+73.25+34.5L320.75+34.5C342.141+34.5234+359.477+51.8594+359.5+73.25L359.5+320.75C359.477+342.141+342.141+359.477+320.75+359.5L73.25+359.5C51.8594+359.477+34.5234+342.141+34.5+320.75L34.5+73.25Z" opacity="1" fill="#888888"/>
<path d="M197+235.398C218.207+235.398+235.398+218.207+235.398+197C235.398+175.793+218.207+158.602+197+158.602C175.793+158.602+158.602+175.793+158.602+197C158.625+218.195+175.805+235.375+197+235.398ZM197+181.102C205.781+181.102+212.898+188.219+212.898+197C212.898+205.781+205.781+212.898+197+212.898C188.219+212.898+181.102+205.781+181.102+197C181.109+188.227+188.227+181.109+197+181.102Z" opacity="1" fill="#888888"/>
<path d="M115.555+153.953C136.762+153.953+153.953+136.762+153.953+115.555C153.953+94.3438+136.762+77.1562+115.555+77.1562C94.3477+77.1562+77.1562+94.3477+77.1562+115.555C77.1797+136.75+94.3594+153.93+115.555+153.953ZM115.555+99.6562C124.336+99.6562+131.453+106.773+131.453+115.555C131.453+124.336+124.336+131.453+115.555+131.453C106.773+131.453+99.6562+124.336+99.6562+115.555C99.6641+106.781+106.781+99.6641+115.555+99.6562Z" opacity="1" fill="#888888"/>
<path d="M278.445+153.953C299.652+153.953+316.844+136.762+316.844+115.555C316.844+94.3477+299.652+77.1562+278.445+77.1562C257.238+77.1562+240.047+94.3477+240.047+115.555C240.07+136.75+257.25+153.93+278.445+153.953ZM278.445+99.6562C287.227+99.6562+294.344+106.773+294.344+115.555C294.344+124.336+287.23+131.453+278.445+131.453C269.664+131.453+262.547+124.336+262.547+115.555C262.555+106.781+269.672+99.6641+278.445+99.6562Z" opacity="1" fill="#888888"/>
<path d="M115.555+316.844C136.762+316.844+153.953+299.652+153.953+278.445C153.953+257.238+136.762+240.047+115.555+240.047C94.3477+240.047+77.1562+257.238+77.1562+278.445C77.1797+299.641+94.3594+316.82+115.555+316.844ZM115.555+262.547C124.336+262.547+131.453+269.664+131.453+278.445C131.453+287.23+124.336+294.344+115.555+294.344C106.773+294.344+99.6562+287.227+99.6562+278.445C99.6641+269.672+106.781+262.555+115.555+262.547Z" opacity="1" fill="#888888"/>
<path d="M278.445+316.844C299.652+316.844+316.844+299.652+316.844+278.445C316.844+257.238+299.656+240.047+278.445+240.047C257.238+240.047+240.047+257.238+240.047+278.445C240.07+299.641+257.25+316.82+278.445+316.844ZM278.445+262.547C287.227+262.547+294.344+269.664+294.344+278.445C294.344+287.227+287.227+294.344+278.445+294.344C269.664+294.344+262.547+287.227+262.547+278.445C262.555+269.672+269.672+262.555+278.445+262.547Z" opacity="1" fill="#888888"/>
</g>
</svg>
