<?xml version="1.0" encoding="UTF-8" standalone="no"?> <!-- Created with Vectornator for iOS (http://vectornator.io/) --><!DOCTYPE svg PUBLIC "-//W3C//DTD SVG 1.1//EN" "http://www.w3.org/Graphics/SVG/1.1/DTD/svg11.dtd">
<svg height="100%" style="fill-rule:evenodd;clip-rule:evenodd;stroke-linecap:round;stroke-linejoin:round;" xmlns:xlink="http://www.w3.org/1999/xlink" xmlns="http://www.w3.org/2000/svg" xml:space="preserve" width="100%" xmlns:vectornator="http://vectornator.io" version="1.1" viewBox="0 0 310.002 310.002">
<metadata>
<vectornator:setting key="Units" value="Points"/>
<vectornator:setting key="GuidesVisible" value="1"/>
<vectornator:setting key="RulersVisible" value="1"/>
<vectornator:setting key="SnapToGuides" value="1"/>
<vectornator:setting key="DynamicGuides" value="1"/>
</metadata>
<defs/>
<g id="Untitled" vectornator:layerName="Untitled">
<g opacity="1">
<path d="M120.605+70.607L140.001+51.212L140.001+204.998C140.001+213.282+146.717+219.998+155.001+219.998C163.285+219.998+170.001+213.282+170.001+204.998L170.001+51.213L189.395+70.607C192.324+73.536+196.162+75.001+200.001+75.001C203.84+75.001+207.679+73.537+210.607+70.607C216.465+64.749+216.465+55.252+210.607+49.394L165.61+4.396C165.258+4.045+164.889+3.713+164.506+3.399C164.34+3.263+164.165+3.145+163.996+3.018C163.774+2.851+163.557+2.681+163.326+2.526C163.119+2.387+162.904+2.267+162.691+2.14C162.484+2.015+162.281+1.885+162.067+1.771C161.85+1.655+161.628+1.557+161.406+1.453C161.183+1.347+160.965+1.237+160.736+1.142C160.522+1.053+160.304+0.982+160.087+0.904C159.843+0.816+159.602+0.722+159.351+0.647C159.135+0.582+158.916+0.534+158.699+0.479C158.443+0.414+158.189+0.342+157.928+0.291C157.678+0.242+157.425+0.213+157.173+0.176C156.941+0.143+156.713+0.0989999+156.478+0.0759999C156.016+0.0309999+155.553+0.00899993+155.089+0.00599993C155.059+0.00599993+155.03+0.00199993+155+0.00199993C154.971+0.00199993+154.941+0.00599993+154.912+0.00599993C154.448+0.00799993+153.984+0.0309999+153.521+0.0759999C153.291+0.0989999+153.068+0.142+152.841+0.174C152.583+0.211+152.325+0.241+152.07+0.292C151.816+0.342+151.57+0.412+151.321+0.475C151.095+0.532+150.869+0.581+150.645+0.648C150.404+0.721+150.169+0.812+149.933+0.897C149.708+0.978+149.481+1.052+149.259+1.144C149.039+1.235+148.829+1.342+148.615+1.443C148.385+1.551+148.153+1.654+147.927+1.774C147.723+1.883+147.531+2.007+147.332+2.126C147.109+2.258+146.885+2.384+146.668+2.529C146.451+2.674+146.248+2.836+146.039+2.991C145.855+3.128+145.668+3.255+145.49+3.402C145.125+3.701+144.776+4.018+144.441+4.349C144.425+4.365+144.408+4.378+144.391+4.394L99.389+49.394C93.531+55.252+93.531+64.749+99.389+70.607C105.25+76.465+114.748+76.463+120.605+70.607Z" opacity="1" fill="#808080"/>
<path d="M255.001+100.002L215.001+100.002C206.717+100.002+200.001+106.718+200.001+115.002C200.001+123.286+206.717+130.002+215.001+130.002L240.001+130.002L240.001+280.002L70.001+280.002L70.001+130.002L95.001+130.002C103.285+130.002+110.001+123.286+110.001+115.002C110.001+106.718+103.285+100.002+95.001+100.002L55.001+100.002C46.717+100.002+40.001+106.718+40.001+115.002L40.001+295.002C40.001+303.286+46.717+310.002+55.001+310.002L255.001+310.002C263.285+310.002+270.001+303.286+270.001+295.002L270.001+115.002C270.001+106.718+263.285+100.002+255.001+100.002Z" opacity="1" fill="#808080"/>
</g>
</g>
</svg>
