<?xml version="1.0" encoding="UTF-8" standalone="no"?> <!-- Created with Vectornator for iOS (http://vectornator.io/) --><!DOCTYPE svg PUBLIC "-//W3C//DTD SVG 1.1//EN" "http://www.w3.org/Graphics/SVG/1.1/DTD/svg11.dtd">
<svg height="100%" style="fill-rule:evenodd;clip-rule:evenodd;stroke-linecap:round;stroke-linejoin:round;" xmlns:xlink="http://www.w3.org/1999/xlink" xmlns="http://www.w3.org/2000/svg" xml:space="preserve" width="100%" xmlns:vectornator="http://vectornator.io" version="1.1" viewBox="0 0 512 512">
<metadata>
<vectornator:setting key="Units" value="Points"/>
<vectornator:setting key="GuidesVisible" value="1"/>
<vectornator:setting key="RulersVisible" value="1"/>
<vectornator:setting key="SnapToGuides" value="1"/>
<vectornator:setting key="DynamicGuides" value="1"/>
</metadata>
<defs/>
<g id="Untitled" vectornator:layerName="Untitled">
<path d="M356.883+124.529C329.889+97.724+294.141+82.998+256.124+82.998C255.778+82.998+255.43+83+255.083+83.002C213.962+83.292+174.859+101.448+147.802+132.813C144.195+136.995+144.66+143.309+148.842+146.917C153.025+150.525+159.339+150.057+162.946+145.877C186.236+118.879+219.871+103.251+255.224+103.002C255.525+103+255.821+102.998+256.12+102.998C288.821+102.998+319.573+115.666+342.793+138.722C366.229+161.992+379.136+192.996+379.136+226.022C379.136+257.561+367.214+287.553+345.567+310.471C322.839+334.533+309.499+364.989+307.497+397.003L288+397.003L288+291.005L294.333+291.005C308.854+291.005+320.666+279.192+320.666+264.673L320.666+263.339C320.666+248.818+308.853+237.007+294.333+237.007C279.812+237.007+268.001+248.82+268.001+263.339L268.001+271.006L244.002+271.006L244.002+263.339C244.002+248.818+232.189+237.007+217.67+237.007L215.976+237.007C201.455+237.007+189.644+248.82+189.644+263.339L189.644+264.673C189.644+279.194+201.457+291.005+215.976+291.005L224.003+291.005L224.003+397.002L204.744+397.002C202.804+364.632+189.729+334.458+167.436+311.283C144.415+287.347+132.234+255.846+133.138+222.584C133.288+217.063+128.935+212.466+123.413+212.316C117.868+212.128+113.296+216.519+113.145+222.041C112.094+260.702+126.255+297.318+153.021+325.147C173.64+346.583+184.995+375.1+184.995+405.447L184.995+407.002L184.995+434.384C184.995+455.773+201.216+473.437+222.001+475.739L222.001+478C222+496.748+237.252+512+255.999+512C274.746+512+289.998+496.748+289.998+478.001L289.998+475.769C310.893+473.571+327.23+455.852+327.23+434.385L327.23+407.003L327.23+405.451C327.23+375.502+338.905+346.647+360.103+324.204C385.272+297.559+399.133+262.689+399.133+226.021C399.134+187.626+384.129+151.583+356.883+124.529ZM288+263.339C288+259.847+290.841+257.006+294.333+257.006C297.825+257.006+300.667+259.847+300.667+263.339L300.667+264.673C300.667+268.165+297.825+271.006+294.333+271.006L288+271.006L288+263.339ZM244.001+291.005L268+291.005L268+397.002L244.001+397.002C244.001+397.002+244.001+291.005+244.001+291.005ZM215.974+271.006C212.482+271.006+209.641+268.165+209.641+264.673L209.641+263.339C209.641+259.847+212.482+257.006+215.974+257.006L217.668+257.006C221.16+257.006+224.001+259.847+224.001+263.339L224.001+271.006C224.001+271.006+215.974+271.006+215.974+271.006ZM270+478.001C270+485.721+263.72+492.001+256+492.001C248.28+492.001+242+485.721+242+478.001L242+476.001L270+476.001L270+478.001ZM307.232+434.385C307.232+446.305+297.535+456.002+285.615+456.002L280+456.002L232.001+456.002L226.611+456.002C214.691+456.002+204.994+446.305+204.994+434.385L204.994+417.002L307.232+417.002C307.232+417.002+307.232+434.385+307.232+434.385Z" opacity="1" fill="#808080"/>
<path d="M256+0C250.478+0+246+4.478+246+10L246+47.344C246+52.866+250.477+57.344+256+57.344C261.522+57.344+266+52.866+266+47.344L266+10C266+4.478+261.522+0+256+0Z" opacity="1" fill="#808080"/>
<path d="M472.02+216.021L434.676+216.021C429.154+216.021+424.676+220.499+424.676+226.021C424.676+231.543+429.154+236.021+434.676+236.021L472.02+236.021C477.542+236.021+482.02+231.543+482.02+226.021C482.02+220.499+477.543+216.021+472.02+216.021Z" opacity="1" fill="#808080"/>
<path d="M77.324+216.021L39.98+216.021C34.458+216.021+29.98+220.499+29.98+226.021C29.98+231.543+34.458+236.021+39.98+236.021L77.324+236.021C82.846+236.021+87.324+231.543+87.324+226.021C87.324+220.499+82.847+216.021+77.324+216.021Z" opacity="1" fill="#808080"/>
<path d="M136.727+92.606L110.322+66.2C106.417+62.297+100.087+62.295+96.179+66.2C92.274+70.105+92.274+76.437+96.179+80.343L122.584+106.749C124.538+108.701+127.097+109.678+129.656+109.678C132.215+109.678+134.774+108.701+136.727+106.749C140.632+102.844+140.632+96.512+136.727+92.606Z" opacity="1" fill="#808080"/>
<path d="M415.821+66.199C411.915+62.295+405.585+62.295+401.679+66.199L375.274+92.605C371.369+96.51+371.369+102.842+375.274+106.748C377.227+108.7+379.786+109.677+382.345+109.677C384.904+109.677+387.463+108.7+389.416+106.748L415.821+80.342C419.726+76.437+419.726+70.105+415.821+66.199Z" opacity="1" fill="#808080"/>
<path d="M349.612+188.262C342.119+169.663+329.377+153.835+312.764+142.487C295.932+130.992+276.258+124.928+255.814+124.928C255.572+124.928+255.326+124.929+255.084+124.93C249.561+124.969+245.115+129.478+245.154+135C245.193+140.499+249.663+144.93+255.153+144.93C255.176+144.93+255.201+144.93+255.224+144.93C255.423+144.928+255.618+144.928+255.816+144.928C289.113+144.928+318.608+164.82+331.062+195.735C332.632+199.633+336.38+202.002+340.34+202.002C341.584+202.002+342.85+201.768+344.073+201.274C349.196+199.21+351.676+193.383+349.612+188.262Z" opacity="1" fill="#808080"/>
<path d="M353.977+218.951C352.118+217.091+349.538+216.02+346.908+216.02C344.267+216.02+341.687+217.091+339.828+218.951C337.968+220.81+336.908+223.39+336.908+226.02C336.908+228.65+337.968+231.23+339.828+233.09C341.687+234.95+344.267+236.02+346.908+236.02C349.538+236.02+352.118+234.951+353.977+233.09C355.837+231.23+356.897+228.65+356.897+226.02C356.897+223.39+355.837+220.81+353.977+218.951Z" opacity="1" fill="#808080"/>
<path d="M140.572+167.432C138.713+165.572+136.133+164.512+133.503+164.512C130.873+164.512+128.293+165.571+126.433+167.432C124.573+169.302+123.503+171.872+123.503+174.512C123.503+177.142+124.572+179.712+126.433+181.582C128.293+183.441+130.873+184.512+133.503+184.512C136.133+184.512+138.713+183.442+140.572+181.582C142.432+179.712+143.503+177.142+143.503+174.512C143.503+171.872+142.433+169.302+140.572+167.432Z" opacity="1" fill="#808080"/>
</g>
</svg>
