<?xml version="1.0" encoding="UTF-8" standalone="no"?> <!-- Created with Vectornator for iOS (http://vectornator.io/) --><!DOCTYPE svg PUBLIC "-//W3C//DTD SVG 1.1//EN" "http://www.w3.org/Graphics/SVG/1.1/DTD/svg11.dtd">
<svg height="100%" style="fill-rule:evenodd;clip-rule:evenodd;stroke-linecap:round;stroke-linejoin:round;" xmlns:xlink="http://www.w3.org/1999/xlink" xmlns="http://www.w3.org/2000/svg" xml:space="preserve" width="100%" xmlns:vectornator="http://vectornator.io" version="1.1" viewBox="0 0 128 128">
<metadata>
<vectornator:setting key="DimensionsVisible" value="1"/>
<vectornator:setting key="PencilOnly" value="0"/>
<vectornator:setting key="SnapToPoints" value="0"/>
<vectornator:setting key="OutlineMode" value="0"/>
<vectornator:setting key="CMYKEnabledKey" value="0"/>
<vectornator:setting key="RulersVisible" value="1"/>
<vectornator:setting key="SnapToEdges" value="0"/>
<vectornator:setting key="GuidesVisible" value="1"/>
<vectornator:setting key="DisplayWhiteBackground" value="0"/>
<vectornator:setting key="doHistoryDisabled" value="0"/>
<vectornator:setting key="SnapToGuides" value="1"/>
<vectornator:setting key="TimeLapseWatermarkDisabled" value="0"/>
<vectornator:setting key="Units" value="Pixels"/>
<vectornator:setting key="DynamicGuides" value="0"/>
<vectornator:setting key="IsolateActiveLayer" value="0"/>
<vectornator:setting key="SnapToGrid" value="0"/>
</metadata>
<defs>
<linearGradient y1="3.98462" id="LinearGradient" x1="6.82735" y2="97.7746" x2="79.3117" gradientUnits="userSpaceOnUse" gradientTransform="matrix(1.48511 0 0 1.50652 -5.12988 -19.2812)">
<stop stop-color="#00aac8" offset="0"/>
<stop stop-color="#c415e6" offset="1"/>
</linearGradient>
</defs>
<g id="圖層1" vectornator:layerName="圖層1">
<path d="M63.9772-1.16588e-06C45.8372+6.2534e-06+31.1111+14.7261+31.1111+32.8661L31.1111+46.6781L28.9687+46.6781C21.5578+46.6781+15.567+52.7126+15.567+60.1254L15.567+114.553C15.567+121.965+21.5578+128+28.9687+128L98.9858+128C106.397+128+112.433+121.965+112.433+114.553L112.433+60.1254C112.433+52.7126+106.397+46.6781+98.9858+46.6781L96.8889+46.6781L96.8889+32.8661C96.8889+14.7261+82.1172-4.87552e-06+63.9772-1.16588e-06ZM63.9772+3.55555C80.1612+3.55555+93.3333+16.6821+93.3333+32.8661L93.3333+48.4558C93.3333+49.4339+94.1331+50.2336+95.1111+50.2336L98.9858+50.2336C104.441+50.2336+108.923+54.6689+108.923+60.1254L108.923+114.553C108.923+120.009+104.441+124.444+98.9858+124.444L28.9687+124.444C23.5136+124.444+19.0769+120.009+19.0769+114.553L19.0769+60.1254C19.0769+54.6689+23.5136+50.2336+28.9687+50.2336L32.8889+50.2336C33.8669+50.2336+34.6667+49.4339+34.6667+48.4558L34.6667+32.8661C34.6667+16.6821+47.7933+3.55556+63.9772+3.55555ZM63.9772+10.2108C51.4618+10.2108+41.3219+20.3506+41.3219+32.8661C41.3219+34.811+41.3219+46.5109+41.3219+48.4558C41.3219+49.53+42.1623+50.3704+43.2365+50.3704L84.7179+50.3704C85.7921+50.3704+86.6781+49.53+86.6781+48.4558L86.6781+32.8661C86.6781+20.3506+76.4927+10.2108+63.9772+10.2108ZM63.9772+14.0855C74.3444+14.0855+82.8034+22.4989+82.8034+32.8661L82.8034+46.4957L45.1966+46.4957C45.1966+42.9262+45.1966+34.5665+45.1966+32.8661C45.1966+22.4989+53.61+14.0855+63.9772+14.0855ZM63.9772+67.51C57.3248+67.51+51.943+72.8918+51.943+79.5442C51.943+83.5112+53.961+87.0644+57.1396+89.2991L57.1396+100.285C57.1396+104.081+60.1789+107.168+63.9772+107.168C67.7755+107.168+70.8604+104.081+70.8604+100.285L70.8604+89.2991C74.039+87.0644+76.057+83.5112+76.057+79.5442C76.057+72.8918+70.6296+67.51+63.9772+67.51ZM63.9772+70.8832C68.7661+70.8832+72.6838+74.7552+72.6838+79.5442C72.6838+82.6466+71.0292+85.4593+68.3533+87.0199C67.8349+87.3222+67.4872+87.8786+67.4872+88.4786L67.4872+100.285C67.4872+102.218+65.9116+103.795+63.9772+103.795C62.0429+103.795+60.5128+102.218+60.5128+100.285L60.5128+88.4786C60.5128+87.8785+60.1651+87.3222+59.6467+87.0199C56.9708+85.4593+55.3162+82.6466+55.3162+79.5442C55.3162+74.7552+59.1883+70.8832+63.9772+70.8832Z" opacity="1" fill="url(#LinearGradient)"/>
</g>
</svg>
