<?xml version="1.0" encoding="UTF-8" standalone="no"?> <!-- Created with Vectornator for iOS (http://vectornator.io/) --><!DOCTYPE svg PUBLIC "-//W3C//DTD SVG 1.1//EN" "http://www.w3.org/Graphics/SVG/1.1/DTD/svg11.dtd">
<svg height="100%" style="fill-rule:evenodd;clip-rule:evenodd;stroke-linecap:round;stroke-linejoin:round;" xmlns:xlink="http://www.w3.org/1999/xlink" xmlns="http://www.w3.org/2000/svg" xml:space="preserve" width="100%" xmlns:vectornator="http://vectornator.io" version="1.1" viewBox="0 0 512 180">
<metadata>
<vectornator:setting key="DisplayWhiteBackground" value="0"/>
<vectornator:setting key="RulersVisible" value="1"/>
<vectornator:setting key="Units" value="Pixels"/>
<vectornator:setting key="New" value="1"/>
<vectornator:setting key="DynamicGuides" value="0"/>
<vectornator:setting key="GuidesVisible" value="1"/>
<vectornator:setting key="SnapToPoints" value="0"/>
<vectornator:setting key="SnapToGrid" value="0"/>
<vectornator:setting key="SnapToGuides" value="1"/>
<vectornator:setting key="DimensionsVisible" value="1"/>
<vectornator:setting key="SnapToEdges" value="0"/>
</metadata>
<defs/>
<g id="圖層1" vectornator:layerName="圖層1">
<path d="M90+0L422+0C471.706+0+512+40.2944+512+90L512+90C512+139.706+471.706+180+422+180L90+180C40.2944+180+0+139.706+0+90L0+90C0+40.2944+40.2944+0+90+0Z" opacity="1" fill="#1778f2"/>
<g opacity="1">
<path d="M913.714-92.0077C911.296-85.1877+907.886-79.5457+903.608-74.8337C898.834-79.7317+895.114-85.4977+892.448-92.0077L913.714-92.0077ZM931.508-92.0077L931.508-99.1997L904.538-99.1997L909.87-100.874C909.126-103.416+907.266-107.384+905.654-110.236L897.78-107.942C899.206-105.214+900.57-101.742+901.252-99.1997L875.088-99.1997L875.088-92.0077L884.822-92.0077C888.17-83.2657+892.448-75.8257+898.028-69.6877C891.58-64.6657+883.582-61.1317+873.91-58.7137C875.398-57.0397+877.568-53.5677+878.374-51.8317C888.356-54.6837+896.664-58.7757+903.484-64.3557C909.994-58.8997+917.992-54.8077+927.726-52.2037C928.842-54.2497+931.012-57.4737+932.686-59.0857C923.448-61.2557+915.636-64.8517+909.25-69.8117C914.644-75.8257+918.86-83.0797+922.022-92.0077L931.508-92.0077Z" opacity="1" fill="#000000"/>
<path d="M945.768-96.7817L984.146-96.7817L984.146-89.5277L991.772-89.5277L991.772-103.726L970.444-103.726C969.638-105.71+968.15-108.19+966.662-110.05L959.284-107.818C960.152-106.64+960.958-105.152+961.702-103.726L938.514-103.726L938.514-89.5277L945.768-89.5277L945.768-96.7817ZM992.206-76.5077L969.08-76.5077L969.08-77.5617C974.288-80.5377+979.186-84.5057+982.782-88.2877L977.884-92.1317L976.21-91.7597L948.806-91.7597L948.806-84.8777L968.77-84.8777C966.414-82.9557+963.81-81.0957+961.206-79.7937L961.206-76.5077L938.204-76.5077L938.204-69.5017L961.206-69.5017L961.206-60.3257C961.206-59.4577+960.834-59.2097+959.594-59.2097C958.354-59.2097+953.704-59.2097+949.86-59.3337C951.162-57.3497+952.588-54.0637+953.084-51.8317C958.168-51.8317+962.136-51.8937+965.112-53.0717C968.15-54.1877+969.08-56.1717+969.08-60.1397L969.08-69.5017L992.206-69.5017L992.206-76.5077Z" opacity="1" fill="#000000"/>
</g>
<path d="M90+25C54.1038+25+25+54.2537+25+90.3348C25+123.089+49.0067+150.138+80.2825+154.864L80.2825+107.649L64.2004+107.649L64.2004+90.4764L80.2825+90.4764L80.2825+79.0482C80.2825+60.1284+89.4529+51.8254+105.096+51.8254C112.587+51.8254+116.552+52.3862+118.427+52.6366L118.427+67.6255L107.756+67.6255C101.115+67.6255+98.7967+73.9576+98.7967+81.09L98.7967+90.4764L118.259+90.4764L115.621+107.649L98.7967+107.649L98.7967+155C130.522+150.677+155+123.411+155+90.3348C155+54.2537+125.896+25+90+25Z" opacity="1" fill="#ffffff"/>
<g opacity="1">
<path d="M174.307+117.977L183.483+117.977L183.483+99.3766L199.789+99.3766L199.789+91.6886L183.483+91.6886L183.483+79.7226L202.579+79.7226L202.579+72.0966L174.307+72.0966L174.307+117.977Z" opacity="1" fill="#ffffff"/>
<path d="M218.389+118.845C222.357+118.845+225.829+116.861+228.867+114.257L229.053+114.257L229.735+117.977L237.175+117.977L237.175+97.7026C237.175+87.6586+232.649+82.3886+223.845+82.3886C218.389+82.3886+213.429+84.4346+209.337+86.9766L212.623+92.9906C215.847+91.1306+218.947+89.7046+222.171+89.7046C226.449+89.7046+227.937+92.3086+228.061+95.7186C214.111+97.2066+208.097+101.113+208.097+108.553C208.097+114.443+212.189+118.845+218.389+118.845ZM221.365+111.715C218.699+111.715+216.777+110.537+216.777+107.809C216.777+104.709+219.629+102.415+228.061+101.299L228.061+108.305C225.891+110.475+223.969+111.715+221.365+111.715Z" opacity="1" fill="#ffffff"/>
<path d="M261.231+118.845C265.075+118.845+269.291+117.543+272.577+114.629L268.981+108.615C267.059+110.227+264.703+111.405+262.223+111.405C257.201+111.405+253.605+107.189+253.605+100.679C253.605+94.1066+257.201+89.8286+262.471+89.8286C264.455+89.8286+266.067+90.6346+267.803+92.1226L272.143+86.2326C269.601+84.0626+266.315+82.3886+262.037+82.3886C252.613+82.3886+244.305+89.0846+244.305+100.679C244.305+112.149+251.621+118.845+261.231+118.845Z" opacity="1" fill="#ffffff"/>
<path d="M294.215+118.845C298.555+118.845+302.957+117.357+306.367+115.001L303.267+109.421C300.787+110.971+298.307+111.839+295.455+111.839C290.309+111.839+286.589+108.863+285.845+103.159L307.235+103.159C307.483+102.353+307.669+100.679+307.669+99.0046C307.669+89.3946+302.709+82.3886+293.161+82.3886C284.853+82.3886+276.979+89.3946+276.979+100.679C276.979+112.087+284.543+118.845+294.215+118.845ZM285.721+97.1446C286.403+92.0606+289.627+89.4566+293.285+89.4566C297.749+89.4566+299.857+92.4326+299.857+97.1446L285.721+97.1446Z" opacity="1" fill="#ffffff"/>
<path d="M332.593+118.845C340.219+118.845+347.349+111.963+347.349+99.9966C347.349+89.3946+342.203+82.3886+333.647+82.3886C330.237+82.3886+326.765+84.0626+324.037+86.5426L324.223+80.9626L324.223+68.5006L315.171+68.5006L315.171+117.977L322.301+117.977L323.107+114.319L323.293+114.319C326.145+117.233+329.493+118.845+332.593+118.845ZM330.547+111.343C328.687+111.343+326.393+110.661+324.223+108.739L324.223+93.4866C326.641+91.0686+328.749+89.8906+331.105+89.8906C335.879+89.8906+337.987+93.5486+337.987+100.183C337.987+107.747+334.763+111.343+330.547+111.343Z" opacity="1" fill="#ffffff"/>
<path d="M369.607+118.845C378.287+118.845+386.285+112.149+386.285+100.679C386.285+89.0846+378.287+82.3886+369.607+82.3886C360.927+82.3886+352.929+89.0846+352.929+100.679C352.929+112.149+360.927+118.845+369.607+118.845ZM369.607+111.405C364.895+111.405+362.229+107.189+362.229+100.679C362.229+94.1066+364.895+89.8286+369.607+89.8286C374.319+89.8286+376.985+94.1066+376.985+100.679C376.985+107.189+374.319+111.405+369.607+111.405Z" opacity="1" fill="#ffffff"/>
<path d="M408.419+118.845C417.099+118.845+425.097+112.149+425.097+100.679C425.097+89.0846+417.099+82.3886+408.419+82.3886C399.739+82.3886+391.741+89.0846+391.741+100.679C391.741+112.149+399.739+118.845+408.419+118.845ZM408.419+111.405C403.707+111.405+401.041+107.189+401.041+100.679C401.041+94.1066+403.707+89.8286+408.419+89.8286C413.131+89.8286+415.797+94.1066+415.797+100.679C415.797+107.189+413.131+111.405+408.419+111.405Z" opacity="1" fill="#ffffff"/>
<path d="M432.723+117.977L441.589+117.977L441.589+109.297L446.611+103.593L455.043+117.977L464.901+117.977L451.757+97.4546L463.785+83.2566L453.865+83.2566L441.837+98.2606L441.589+98.2606L441.589+68.5006L432.723+68.5006L432.723+117.977Z" opacity="1" fill="#ffffff"/>
</g>
</g>
</svg>
