<?xml version="1.0" encoding="UTF-8" standalone="no"?> <!-- Created with Vectornator for iOS (http://vectornator.io/) --><!DOCTYPE svg PUBLIC "-//W3C//DTD SVG 1.1//EN" "http://www.w3.org/Graphics/SVG/1.1/DTD/svg11.dtd">
<svg height="100%" style="fill-rule:evenodd;clip-rule:evenodd;stroke-linecap:round;stroke-linejoin:round;" xmlns:xlink="http://www.w3.org/1999/xlink" xmlns="http://www.w3.org/2000/svg" xml:space="preserve" width="100%" xmlns:vectornator="http://vectornator.io" version="1.1" viewBox="0 0 512 180">
<metadata>
<vectornator:setting key="DisplayWhiteBackground" value="0"/>
<vectornator:setting key="RulersVisible" value="1"/>
<vectornator:setting key="Units" value="Pixels"/>
<vectornator:setting key="New" value="1"/>
<vectornator:setting key="DynamicGuides" value="0"/>
<vectornator:setting key="GuidesVisible" value="1"/>
<vectornator:setting key="SnapToPoints" value="0"/>
<vectornator:setting key="SnapToGrid" value="0"/>
<vectornator:setting key="SnapToGuides" value="1"/>
<vectornator:setting key="DimensionsVisible" value="1"/>
<vectornator:setting key="SnapToEdges" value="0"/>
</metadata>
<defs/>
<g id="圖層1" vectornator:layerName="圖層1">
<path d="M90+0L422+0C471.706+0+512+40.2944+512+90L512+90C512+139.706+471.706+180+422+180L90+180C40.2944+180+0+139.706+0+90L0+90C0+40.2944+40.2944+0+90+0Z" opacity="1" fill="#000000"/>
<g opacity="1">
<path d="M913.714-92.0077C911.296-85.1877+907.886-79.5457+903.608-74.8337C898.834-79.7317+895.114-85.4977+892.448-92.0077L913.714-92.0077ZM931.508-92.0077L931.508-99.1997L904.538-99.1997L909.87-100.874C909.126-103.416+907.266-107.384+905.654-110.236L897.78-107.942C899.206-105.214+900.57-101.742+901.252-99.1997L875.088-99.1997L875.088-92.0077L884.822-92.0077C888.17-83.2657+892.448-75.8257+898.028-69.6877C891.58-64.6657+883.582-61.1317+873.91-58.7137C875.398-57.0397+877.568-53.5677+878.374-51.8317C888.356-54.6837+896.664-58.7757+903.484-64.3557C909.994-58.8997+917.992-54.8077+927.726-52.2037C928.842-54.2497+931.012-57.4737+932.686-59.0857C923.448-61.2557+915.636-64.8517+909.25-69.8117C914.644-75.8257+918.86-83.0797+922.022-92.0077L931.508-92.0077Z" opacity="1" fill="#000000"/>
<path d="M945.768-96.7817L984.146-96.7817L984.146-89.5277L991.772-89.5277L991.772-103.726L970.444-103.726C969.638-105.71+968.15-108.19+966.662-110.05L959.284-107.818C960.152-106.64+960.958-105.152+961.702-103.726L938.514-103.726L938.514-89.5277L945.768-89.5277L945.768-96.7817ZM992.206-76.5077L969.08-76.5077L969.08-77.5617C974.288-80.5377+979.186-84.5057+982.782-88.2877L977.884-92.1317L976.21-91.7597L948.806-91.7597L948.806-84.8777L968.77-84.8777C966.414-82.9557+963.81-81.0957+961.206-79.7937L961.206-76.5077L938.204-76.5077L938.204-69.5017L961.206-69.5017L961.206-60.3257C961.206-59.4577+960.834-59.2097+959.594-59.2097C958.354-59.2097+953.704-59.2097+949.86-59.3337C951.162-57.3497+952.588-54.0637+953.084-51.8317C958.168-51.8317+962.136-51.8937+965.112-53.0717C968.15-54.1877+969.08-56.1717+969.08-60.1397L969.08-69.5017L992.206-69.5017L992.206-76.5077Z" opacity="1" fill="#000000"/>
</g>
<g opacity="1">
<path d="M182.509+118.845C188.895+118.845+194.289+116.365+197.389+113.327L197.389+92.6186L181.083+92.6186L181.083+100.121L189.205+100.121L189.205+109.173C187.903+110.289+185.671+110.909+183.439+110.909C174.449+110.909+169.861+104.895+169.861+94.9126C169.861+85.0546+175.193+79.1026+182.819+79.1026C186.973+79.1026+189.577+80.7766+191.809+82.9466L196.707+77.1186C193.731+74.0806+189.143+71.2286+182.509+71.2286C170.295+71.2286+160.499+80.0946+160.499+95.2226C160.499+110.537+169.985+118.845+182.509+118.845Z" opacity="1" fill="#ffffff"/>
<path d="M206.503+117.977L215.555+117.977L215.555+83.2566L206.503+83.2566L206.503+117.977ZM211.091+77.6766C214.191+77.6766+216.485+75.5686+216.485+72.7166C216.485+69.7406+214.191+67.7566+211.091+67.7566C207.929+67.7566+205.635+69.7406+205.635+72.7166C205.635+75.5686+207.929+77.6766+211.091+77.6766Z" opacity="1" fill="#ffffff"/>
<path d="M238.061+118.845C241.099+118.845+243.517+118.163+245.377+117.543L243.889+110.909C242.959+111.281+241.595+111.653+240.479+111.653C237.379+111.653+235.767+109.793+235.767+105.825L235.767+90.4486L244.323+90.4486L244.323+83.2566L235.767+83.2566L235.767+73.9566L228.141+73.9566L227.087+83.2566L221.755+83.6906L221.755+90.4486L226.653+90.4486L226.653+105.825C226.653+113.637+229.815+118.845+238.061+118.845Z" opacity="1" fill="#ffffff"/>
<path d="M251.391+117.977L260.443+117.977L260.443+94.1066C263.047+91.5646+264.845+90.2006+267.697+90.2006C271.107+90.2006+272.595+92.1226+272.595+97.4546L272.595+117.977L281.709+117.977L281.709+96.3386C281.709+87.5966+278.485+82.3886+270.983+82.3886C266.271+82.3886+262.861+84.8686+260.071+87.4726L260.443+80.9626L260.443+68.5006L251.391+68.5006L251.391+117.977Z" opacity="1" fill="#ffffff"/>
<path d="M301.363+118.845C306.137+118.845+309.485+116.551+312.461+113.017L312.709+113.017L313.391+117.977L320.831+117.977L320.831+83.2566L311.717+83.2566L311.717+106.693C309.361+109.793+307.501+111.033+304.649+111.033C301.301+111.033+299.813+109.173+299.813+103.779L299.813+83.2566L290.699+83.2566L290.699+104.957C290.699+113.637+293.923+118.845+301.363+118.845Z" opacity="1" fill="#ffffff"/>
<path d="M347.987+118.845C355.613+118.845+362.743+111.963+362.743+99.9966C362.743+89.3946+357.597+82.3886+349.041+82.3886C345.631+82.3886+342.159+84.0626+339.431+86.5426L339.617+80.9626L339.617+68.5006L330.565+68.5006L330.565+117.977L337.695+117.977L338.501+114.319L338.687+114.319C341.539+117.233+344.887+118.845+347.987+118.845ZM345.941+111.343C344.081+111.343+341.787+110.661+339.617+108.739L339.617+93.4866C342.035+91.0686+344.143+89.8906+346.499+89.8906C351.273+89.8906+353.381+93.5486+353.381+100.183C353.381+107.747+350.157+111.343+345.941+111.343Z" opacity="1" fill="#ffffff"/>
</g>
<path d="M87.4286+41.3606C64.399+43.8638+45.8752+62.3876+43.372+84.9165C40.3681+109.949+55.8881+131.476+77.9164+138.485L77.9164+126.971C77.9164+126.971+75.9138+127.471+73.4106+127.471C66.4016+127.471+63.3977+121.463+62.8971+117.959C62.3964+115.956+61.3952+114.454+59.8932+112.953C58.3913+112.452+57.8907+112.452+57.8907+111.951C57.8907+110.95+59.3926+110.95+59.8932+110.95C62.8971+110.95+65.4003+114.454+66.4016+115.956C68.9048+119.962+71.9087+120.963+73.4106+120.963C75.4132+120.963+76.9151+120.462+77.9164+119.962C78.417+116.457+79.919+112.953+82.9228+110.95C71.408+108.447+62.8971+101.938+62.8971+90.9242C62.8971+85.4172+65.4003+79.9101+68.9048+75.9049C68.4042+74.9036+67.9035+72.4004+67.9035+68.8959C67.9035+66.8934+67.9035+63.8895+69.4055+60.8856C69.4055+60.8856+76.4145+60.8856+83.4235+67.394C85.9267+66.3927+89.4312+65.8921+92.9357+65.8921C96.4402+65.8921+99.9447+66.3927+102.949+67.394C109.457+60.8856+116.967+60.8856+116.967+60.8856C117.968+63.8895+117.968+66.8934+117.968+68.8959C117.968+72.9011+117.467+74.9036+116.967+75.9049C120.471+79.9101+122.974+84.9165+122.974+90.9242C122.974+101.938+114.463+108.447+102.949+110.95C105.952+113.453+107.955+117.959+107.955+122.465L107.955+138.986C128.481+132.478+143+113.453+143+91.4249C143+61.3863+117.467+37.8561+87.4286+41.3606Z" opacity="1" fill="#ffffff"/>
</g>
</svg>
