<?xml version="1.0" encoding="UTF-8" standalone="no"?> <!-- Created with Vectornator for iOS (http://vectornator.io/) --><!DOCTYPE svg PUBLIC "-//W3C//DTD SVG 1.1//EN" "http://www.w3.org/Graphics/SVG/1.1/DTD/svg11.dtd">
<svg height="100%" style="fill-rule:evenodd;clip-rule:evenodd;stroke-linecap:round;stroke-linejoin:round;" xmlns:xlink="http://www.w3.org/1999/xlink" xmlns="http://www.w3.org/2000/svg" xml:space="preserve" width="100%" xmlns:vectornator="http://vectornator.io" version="1.1" viewBox="0 0 512 180">
<metadata>
<vectornator:setting key="DisplayWhiteBackground" value="0"/>
<vectornator:setting key="RulersVisible" value="1"/>
<vectornator:setting key="Units" value="Pixels"/>
<vectornator:setting key="New" value="1"/>
<vectornator:setting key="DynamicGuides" value="0"/>
<vectornator:setting key="GuidesVisible" value="1"/>
<vectornator:setting key="SnapToPoints" value="0"/>
<vectornator:setting key="SnapToGrid" value="0"/>
<vectornator:setting key="SnapToGuides" value="1"/>
<vectornator:setting key="DimensionsVisible" value="1"/>
<vectornator:setting key="SnapToEdges" value="0"/>
</metadata>
<defs/>
<g id="圖層1" vectornator:layerName="圖層1">
<path d="M90+0L422+0C471.706+0+512+40.2944+512+90L512+90C512+139.706+471.706+180+422+180L90+180C40.2944+180+0+139.706+0+90L0+90C0+40.2944+40.2944+0+90+0Z" opacity="1" fill="#00c300"/>
<g opacity="1">
<path d="M913.714-92.0077C911.296-85.1877+907.886-79.5457+903.608-74.8337C898.834-79.7317+895.114-85.4977+892.448-92.0077L913.714-92.0077ZM931.508-92.0077L931.508-99.1997L904.538-99.1997L909.87-100.874C909.126-103.416+907.266-107.384+905.654-110.236L897.78-107.942C899.206-105.214+900.57-101.742+901.252-99.1997L875.088-99.1997L875.088-92.0077L884.822-92.0077C888.17-83.2657+892.448-75.8257+898.028-69.6877C891.58-64.6657+883.582-61.1317+873.91-58.7137C875.398-57.0397+877.568-53.5677+878.374-51.8317C888.356-54.6837+896.664-58.7757+903.484-64.3557C909.994-58.8997+917.992-54.8077+927.726-52.2037C928.842-54.2497+931.012-57.4737+932.686-59.0857C923.448-61.2557+915.636-64.8517+909.25-69.8117C914.644-75.8257+918.86-83.0797+922.022-92.0077L931.508-92.0077Z" opacity="1" fill="#000000"/>
<path d="M945.768-96.7817L984.146-96.7817L984.146-89.5277L991.772-89.5277L991.772-103.726L970.444-103.726C969.638-105.71+968.15-108.19+966.662-110.05L959.284-107.818C960.152-106.64+960.958-105.152+961.702-103.726L938.514-103.726L938.514-89.5277L945.768-89.5277L945.768-96.7817ZM992.206-76.5077L969.08-76.5077L969.08-77.5617C974.288-80.5377+979.186-84.5057+982.782-88.2877L977.884-92.1317L976.21-91.7597L948.806-91.7597L948.806-84.8777L968.77-84.8777C966.414-82.9557+963.81-81.0957+961.206-79.7937L961.206-76.5077L938.204-76.5077L938.204-69.5017L961.206-69.5017L961.206-60.3257C961.206-59.4577+960.834-59.2097+959.594-59.2097C958.354-59.2097+953.704-59.2097+949.86-59.3337C951.162-57.3497+952.588-54.0637+953.084-51.8317C958.168-51.8317+962.136-51.8937+965.112-53.0717C968.15-54.1877+969.08-56.1717+969.08-60.1397L969.08-69.5017L992.206-69.5017L992.206-76.5077Z" opacity="1" fill="#000000"/>
</g>
<path d="M48.4722+155L131.528+155C144.491+155+155+144.491+155+131.528L155+48.4722C155+35.5089+144.491+25+131.528+25L48.4722+25C35.5089+25+25+35.5089+25+48.4722L25+131.528C25+144.491+35.5089+155+48.4722+155Z" opacity="1" fill="#00c300"/>
<g opacity="1">
<path d="M173.656+117.977L201.432+117.977L201.432+110.289L182.832+110.289L182.832+72.0966L173.656+72.0966L173.656+117.977Z" opacity="1" fill="#ffffff"/>
<path d="M209.43+117.977L218.606+117.977L218.606+72.0966L209.43+72.0966L209.43+117.977Z" opacity="1" fill="#ffffff"/>
<path d="M229.89+117.977L238.57+117.977L238.57+99.5626C238.57+94.2926+237.888+88.5266+237.454+83.5666L237.764+83.5666L242.414+93.4246L255.682+117.977L264.982+117.977L264.982+72.0966L256.302+72.0966L256.302+90.3866C256.302+95.5946+256.984+101.671+257.48+106.445L257.17+106.445L252.582+96.5246L239.252+72.0966L229.89+72.0966L229.89+117.977Z" opacity="1" fill="#ffffff"/>
<path d="M276.328+117.977L305.158+117.977L305.158+110.289L285.504+110.289L285.504+98.0126L301.624+98.0126L301.624+90.3246L285.504+90.3246L285.504+79.7226L304.476+79.7226L304.476+72.0966L276.328+72.0966L276.328+117.977Z" opacity="1" fill="#ffffff"/>
<path d="M347.256+118.845C353.208+118.845+358.106+116.489+361.888+112.087L357.052+106.383C354.572+109.049+351.472+110.909+347.566+110.909C340.312+110.909+335.6+104.895+335.6+94.9126C335.6+85.0546+340.808+79.1026+347.752+79.1026C351.224+79.1026+353.89+80.7146+356.184+82.9466L361.02+77.1186C358.044+74.0186+353.394+71.2286+347.566+71.2286C335.972+71.2286+326.238+80.0946+326.238+95.2226C326.238+110.537+335.662+118.845+347.256+118.845Z" opacity="1" fill="#ffffff"/>
<path d="M368.522+117.977L377.574+117.977L377.574+94.1066C380.178+91.5646+381.976+90.2006+384.828+90.2006C388.238+90.2006+389.726+92.1226+389.726+97.4546L389.726+117.977L398.84+117.977L398.84+96.3386C398.84+87.5966+395.616+82.3886+388.114+82.3886C383.402+82.3886+379.992+84.8686+377.202+87.4726L377.574+80.9626L377.574+68.5006L368.522+68.5006L368.522+117.977Z" opacity="1" fill="#ffffff"/>
<path d="M416.758+118.845C420.726+118.845+424.198+116.861+427.236+114.257L427.422+114.257L428.104+117.977L435.544+117.977L435.544+97.7026C435.544+87.6586+431.018+82.3886+422.214+82.3886C416.758+82.3886+411.798+84.4346+407.706+86.9766L410.992+92.9906C414.216+91.1306+417.316+89.7046+420.54+89.7046C424.818+89.7046+426.306+92.3086+426.43+95.7186C412.48+97.2066+406.466+101.113+406.466+108.553C406.466+114.443+410.558+118.845+416.758+118.845ZM419.734+111.715C417.068+111.715+415.146+110.537+415.146+107.809C415.146+104.709+417.998+102.415+426.43+101.299L426.43+108.305C424.26+110.475+422.338+111.715+419.734+111.715Z" opacity="1" fill="#ffffff"/>
<path d="M457.554+118.845C460.592+118.845+463.01+118.163+464.87+117.543L463.382+110.909C462.452+111.281+461.088+111.653+459.972+111.653C456.872+111.653+455.26+109.793+455.26+105.825L455.26+90.4486L463.816+90.4486L463.816+83.2566L455.26+83.2566L455.26+73.9566L447.634+73.9566L446.58+83.2566L441.248+83.6906L441.248+90.4486L446.146+90.4486L446.146+105.825C446.146+113.637+449.308+118.845+457.554+118.845Z" opacity="1" fill="#ffffff"/>
</g>
<path d="M137.354+84.2871C137.354+63.1+116.124+45.8767+90.0282+45.8767C63.9182+45.8767+42.6888+63.1+42.6888+84.2871C42.6888+103.274+59.5313+119.171+82.27+122.176C83.8075+122.514+85.9093+123.205+86.4453+124.517C86.9249+125.716+86.7556+127.578+86.6005+128.791C86.6005+128.791+86.0362+132.134+85.9234+132.84C85.7118+134.039+84.9642+137.523+90.0141+135.393C95.064+133.277+117.281+119.354+127.211+107.914L127.197+107.914C134.067+100.396+137.354+92.7648+137.354+84.2871ZM71.4931+96.8837L62.0844+96.8837C60.7161+96.8837+59.6159+95.7693+59.6159+94.401L59.6159+75.5979C59.6159+74.2296+60.7161+73.1152+62.0844+73.1152C63.4527+73.1152+64.5671+74.2296+64.5671+75.5979L64.5671+91.9184L71.4931+91.9184C72.8613+91.9184+73.9757+93.0328+73.9757+94.401C73.9757+95.7693+72.8613+96.8837+71.4931+96.8837ZM81.212+94.401C81.212+95.7693+80.1118+96.8837+78.7435+96.8837C77.3752+96.8837+76.2609+95.7693+76.2609+94.401L76.2609+75.5979C76.2609+74.2296+77.3752+73.1152+78.7435+73.1152C80.1118+73.1152+81.212+74.2296+81.212+75.5979L81.212+94.401ZM103.866+94.401C103.866+95.4731+103.175+96.4182+102.159+96.7567C101.905+96.8414+101.637+96.8837+101.369+96.8837C100.594+96.8837+99.86+96.5169+99.3945+95.8963L89.7602+82.7637L89.7602+94.401C89.7602+95.7693+88.6458+96.8837+87.2635+96.8837C85.8952+96.8837+84.7808+95.7693+84.7808+94.401L84.7808+75.5979C84.7808+74.5258+85.472+73.5807+86.4876+73.2422C86.7415+73.1576+87.0095+73.1152+87.2635+73.1152C88.0393+73.1152+88.7869+73.482+89.2524+74.1026L98.9008+87.2352L98.9008+75.5979C98.9008+74.2296+100.015+73.1152+101.383+73.1152C102.752+73.1152+103.866+74.2296+103.866+75.5979L103.866+94.401ZM119.072+82.5098C120.441+82.5098+121.555+83.6241+121.555+84.9924C121.555+86.3607+120.455+87.475+119.072+87.475L112.16+87.475L112.16+91.9184L119.072+91.9184C120.441+91.9184+121.555+93.0328+121.555+94.401C121.555+95.7693+120.441+96.8837+119.072+96.8837L109.678+96.8837C108.309+96.8837+107.195+95.7693+107.195+94.401L107.195+85.0065C107.195+84.9924+107.195+84.9924+107.195+84.9924L107.195+75.5979C107.195+74.2296+108.309+73.1152+109.678+73.1152L119.072+73.1152C120.441+73.1152+121.555+74.2296+121.555+75.5979C121.555+76.9661+120.455+78.0805+119.072+78.0805L112.16+78.0805L112.16+82.5239L119.072+82.5239L119.072+82.5098Z" opacity="1" fill="#ffffff"/>
</g>
</svg>
