<?xml version="1.0" encoding="UTF-8" standalone="no"?> <!-- Created with Vectornator for iOS (http://vectornator.io/) --><!DOCTYPE svg PUBLIC "-//W3C//DTD SVG 1.1//EN" "http://www.w3.org/Graphics/SVG/1.1/DTD/svg11.dtd">
<svg height="100%" style="fill-rule:evenodd;clip-rule:evenodd;stroke-linecap:round;stroke-linejoin:round;" xmlns:xlink="http://www.w3.org/1999/xlink" xmlns="http://www.w3.org/2000/svg" xml:space="preserve" width="100%" xmlns:vectornator="http://vectornator.io" version="1.1" viewBox="0 0 512 180">
<metadata>
<vectornator:setting key="DisplayWhiteBackground" value="0"/>
<vectornator:setting key="RulersVisible" value="1"/>
<vectornator:setting key="Units" value="Pixels"/>
<vectornator:setting key="New" value="1"/>
<vectornator:setting key="DynamicGuides" value="0"/>
<vectornator:setting key="GuidesVisible" value="1"/>
<vectornator:setting key="SnapToPoints" value="0"/>
<vectornator:setting key="SnapToGrid" value="0"/>
<vectornator:setting key="SnapToGuides" value="1"/>
<vectornator:setting key="DimensionsVisible" value="1"/>
<vectornator:setting key="SnapToEdges" value="0"/>
</metadata>
<defs/>
<g id="圖層1" vectornator:layerName="圖層1">
<path d="M90+0L422+0C471.706+0+512+40.2944+512+90L512+90C512+139.706+471.706+180+422+180L90+180C40.2944+180+0+139.706+0+90L0+90C0+40.2944+40.2944+0+90+0Z" opacity="1" fill="#ff3d00"/>
<path d="M140.75+114.683C139.756+119.924+135.519+123.918+130.278+124.658C122.047+125.905+108.332+127.405+92.8734+127.405C77.6581+127.405+63.9429+125.905+55.4683+124.658C50.2277+123.918+45.9905+119.924+44.9969+114.683C43.9936+108.956+43+100.471+43+90C43+79.5285+43.9936+71.0442+44.9969+65.3166C45.9905+60.076+50.2277+56.0822+55.4683+55.3419C63.6994+54.0951+77.4146+52.595+92.8734+52.595C108.332+52.595+121.804+54.0951+130.278+55.3419C135.519+56.0822+139.756+60.076+140.75+65.3166C141.753+71.0442+143+79.5285+143+90C142.747+100.471+141.753+108.956+140.75+114.683Z" opacity="1" fill="#ffffff"/>
<g opacity="1">
<path d="M913.714-92.0077C911.296-85.1877+907.886-79.5457+903.608-74.8337C898.834-79.7317+895.114-85.4977+892.448-92.0077L913.714-92.0077ZM931.508-92.0077L931.508-99.1997L904.538-99.1997L909.87-100.874C909.126-103.416+907.266-107.384+905.654-110.236L897.78-107.942C899.206-105.214+900.57-101.742+901.252-99.1997L875.088-99.1997L875.088-92.0077L884.822-92.0077C888.17-83.2657+892.448-75.8257+898.028-69.6877C891.58-64.6657+883.582-61.1317+873.91-58.7137C875.398-57.0397+877.568-53.5677+878.374-51.8317C888.356-54.6837+896.664-58.7757+903.484-64.3557C909.994-58.8997+917.992-54.8077+927.726-52.2037C928.842-54.2497+931.012-57.4737+932.686-59.0857C923.448-61.2557+915.636-64.8517+909.25-69.8117C914.644-75.8257+918.86-83.0797+922.022-92.0077L931.508-92.0077Z" opacity="1" fill="#000000"/>
<path d="M945.768-96.7817L984.146-96.7817L984.146-89.5277L991.772-89.5277L991.772-103.726L970.444-103.726C969.638-105.71+968.15-108.19+966.662-110.05L959.284-107.818C960.152-106.64+960.958-105.152+961.702-103.726L938.514-103.726L938.514-89.5277L945.768-89.5277L945.768-96.7817ZM992.206-76.5077L969.08-76.5077L969.08-77.5617C974.288-80.5377+979.186-84.5057+982.782-88.2877L977.884-92.1317L976.21-91.7597L948.806-91.7597L948.806-84.8777L968.77-84.8777C966.414-82.9557+963.81-81.0957+961.206-79.7937L961.206-76.5077L938.204-76.5077L938.204-69.5017L961.206-69.5017L961.206-60.3257C961.206-59.4577+960.834-59.2097+959.594-59.2097C958.354-59.2097+953.704-59.2097+949.86-59.3337C951.162-57.3497+952.588-54.0637+953.084-51.8317C958.168-51.8317+962.136-51.8937+965.112-53.0717C968.15-54.1877+969.08-56.1717+969.08-60.1397L969.08-69.5017L992.206-69.5017L992.206-76.5077Z" opacity="1" fill="#000000"/>
</g>
<g opacity="1">
<path d="M170.543+117.977L179.719+117.977L179.719+101.175L193.545+72.0966L183.997+72.0966L179.409+83.2566C178.107+86.6666+176.743+89.8906+175.317+93.4246L175.069+93.4246C173.643+89.8906+172.403+86.6666+171.101+83.2566L166.513+72.0966L156.779+72.0966L170.543+101.175L170.543+117.977Z" opacity="1" fill="#ffffff"/>
<path d="M208.983+118.845C217.663+118.845+225.661+112.149+225.661+100.679C225.661+89.0846+217.663+82.3886+208.983+82.3886C200.303+82.3886+192.305+89.0846+192.305+100.679C192.305+112.149+200.303+118.845+208.983+118.845ZM208.983+111.405C204.271+111.405+201.605+107.189+201.605+100.679C201.605+94.1066+204.271+89.8286+208.983+89.8286C213.695+89.8286+216.361+94.1066+216.361+100.679C216.361+107.189+213.695+111.405+208.983+111.405Z" opacity="1" fill="#ffffff"/>
<path d="M243.579+118.845C248.353+118.845+251.701+116.551+254.677+113.017L254.925+113.017L255.607+117.977L263.047+117.977L263.047+83.2566L253.933+83.2566L253.933+106.693C251.577+109.793+249.717+111.033+246.865+111.033C243.517+111.033+242.029+109.173+242.029+103.779L242.029+83.2566L232.915+83.2566L232.915+104.957C232.915+113.637+236.139+118.845+243.579+118.845Z" opacity="1" fill="#ffffff"/>
<path d="M281.213+117.977L290.389+117.977L290.389+79.7226L303.409+79.7226L303.409+72.0966L268.317+72.0966L268.317+79.7226L281.213+79.7226L281.213+117.977Z" opacity="1" fill="#ffffff"/>
<path d="M317.359+118.845C322.133+118.845+325.481+116.551+328.457+113.017L328.705+113.017L329.387+117.977L336.827+117.977L336.827+83.2566L327.713+83.2566L327.713+106.693C325.357+109.793+323.497+111.033+320.645+111.033C317.297+111.033+315.809+109.173+315.809+103.779L315.809+83.2566L306.695+83.2566L306.695+104.957C306.695+113.637+309.919+118.845+317.359+118.845Z" opacity="1" fill="#ffffff"/>
<path d="M363.983+118.845C371.609+118.845+378.739+111.963+378.739+99.9966C378.739+89.3946+373.593+82.3886+365.037+82.3886C361.627+82.3886+358.155+84.0626+355.427+86.5426L355.613+80.9626L355.613+68.5006L346.561+68.5006L346.561+117.977L353.691+117.977L354.497+114.319L354.683+114.319C357.535+117.233+360.883+118.845+363.983+118.845ZM361.937+111.343C360.077+111.343+357.783+110.661+355.613+108.739L355.613+93.4866C358.031+91.0686+360.139+89.8906+362.495+89.8906C367.269+89.8906+369.377+93.5486+369.377+100.183C369.377+107.747+366.153+111.343+361.937+111.343Z" opacity="1" fill="#ffffff"/>
<path d="M401.555+118.845C405.895+118.845+410.297+117.357+413.707+115.001L410.607+109.421C408.127+110.971+405.647+111.839+402.795+111.839C397.649+111.839+393.929+108.863+393.185+103.159L414.575+103.159C414.823+102.353+415.009+100.679+415.009+99.0046C415.009+89.3946+410.049+82.3886+400.501+82.3886C392.193+82.3886+384.319+89.3946+384.319+100.679C384.319+112.087+391.883+118.845+401.555+118.845ZM393.061+97.1446C393.743+92.0606+396.967+89.4566+400.625+89.4566C405.089+89.4566+407.197+92.4326+407.197+97.1446L393.061+97.1446Z" opacity="1" fill="#ffffff"/>
</g>
<path d="M82.8987+107.456L82.8987+72.5443L112.823+90L82.8987+107.456Z" opacity="1" fill="#ff3d00"/>
</g>
</svg>
